<?xml version="1.0" standalone="no"?>
<!DOCTYPE svg PUBLIC "-//W3C//DTD SVG 20010904//EN"
 "http://www.w3.org/TR/2001/REC-SVG-20010904/DTD/svg10.dtd">
<svg version="1.0" xmlns="http://www.w3.org/2000/svg"
 width="225.000000pt" height="225.000000pt" viewBox="0 0 225.000000 225.000000"
 preserveAspectRatio="xMidYMid meet">
<metadata>
Created by potrace 1.10, written by Peter Selinger 2001-2011
</metadata>
<g transform="translate(0.000000,225.000000) scale(0.100000,-0.100000)"
fill="#000000" stroke="none">
<path d="M1078 1452 c-195 -194 -308 -315 -308 -327 0 -12 113 -133 309 -329
292 -291 311 -308 338 -302 35 9 50 24 59 59 6 27 -10 45 -265 300 l-271 272
271 272 c255 254 271 273 265 300 -8 34 -40 63 -69 63 -15 0 -119 -98 -329
-308z m360 238 c2 -21 -41 -69 -258 -287 -143 -145 -260 -271 -260 -280 0 -10
115 -132 255 -273 141 -140 260 -261 264 -269 16 -26 1 -51 -32 -51 -28 0 -65
33 -314 283 -218 218 -283 288 -283 307 0 19 66 91 288 313 240 240 291 287
312 285 18 -2 26 -10 28 -28z"/>
</g>
</svg>
