 <svg version="1.0" xmlns="http://www.w3.org/2000/svg" width="700.000000pt" height="700.000000pt" viewBox="0 0 700.000000 700.000000" preserveAspectRatio="xMidYMid meet">
<metadata>
Created by potrace 1.12, written by Peter Selinger 2001-2015
</metadata>
<g transform="translate(0.000000,700.000000) scale(0.100000,-0.100000)" fill="#000000" stroke="none">
<path d="M4295 5448 c-19 -6 -359 -339 -946 -925 l-917 -916 -11 -54 c-7 -39
-8 -69 0 -106 11 -52 13 -54 927 -969 907 -908 917 -918 968 -929 138 -31 253
44 262 172 9 125 75 50 -824 949 -448 448 -814 822 -814 830 0 8 366 382 814
830 899 900 833 824 824 950 -3 47 -10 68 -34 97 -57 72 -161 101 -249 71z"></path>
</g>
</svg>